<?xml version="1.0" encoding="UTF-8"?>
<svg version="1.1" viewBox="0 0 2000 2000" width="70" height="70" xmlns="http://www.w3.org/2000/svg">
<path transform="translate(181,912)" d="m0 0h90l21 2 19 4 16 6 16 8 11 7 13 10 18 18 10 14 8 14 7 17 5 19 2 14 1 20-2 23-3 15-6 18-8 16-7 11-11 14-14 14-16 12-18 10-15 6-15 4-17 3-17 1h-89l-1-4v-228l1-67zm67 61v48l5-3 4-5 13-8 9-3 5-1h16l16 4 11 7 5 6 1-2-8-12-4-5h-2l-2-4-15-11-16-7-17-3zm93 106-4 8-8 9-9 6-9 4-7 1h-26l-11-4-9-6-9-9h-1v63h18l18-3 13-5 14-9 10-9 9-12 9-17 4-14v-3z" fill="#FEFEFE"/>
<path transform="translate(1059,615)" d="m0 0 14 1 9 3 11 8 7 8 6 12 2 8v9l-4 13-6 9-7 8-5 2 12 12 6 10 4 13v10l-4 12-6 8-9 10-2 1v2l8 7 7 8 5 12 1 5v10l-4 13-8 10-7 8h-2v4l4 2 9 9 6 12 2 9v9l-4 13-8 10-9 9 6 7 8 8 4 8 3 11v10l-5 15-13 14-2 1 1 5 3 2v2l4 2 6 8 5 12 1 6v9l-5 15-6 7-8 7-1 5 8 7 7 9 4 10 1 6v9l-5 15-9 10-6 6 1 5 3 2v2l4 2v2h2l6 9 4 13v10l-5 15-9 10-8 8-10 4-9 2-13-1-10-3-8-6-10-10-6-11-2-10v-8l2-9 6-11 12-12-2-4-7-7-7-11-3-8-1-5v-10l3-10 6-10 9-9 2-1-2-6h-2l-9-11-5-10-2-13 2-13 7-12 5-6 5-4h2l-3-5-8-8-7-12-2-6-1-11 3-14 6-10 12-12-11-11-6-10-3-8-1-12 3-13 6-9 9-10 3-3-12-12-7-14-2-9 1-12 3-9 6-8 5-6 5-4h2l-7-8-7-7-6-12-2-10 1-10 3-10 6-9 9-9 2-1-2-4-12-12-5-11-2-10 1-10 3-10 4-6 4-5h2l2-4 10-8 8-3z" fill="#FEFEFE"/>
<path transform="translate(791,1020)" d="m0 0h17l16 3 15 6 13 9 8 9 5 5 12-12 12-9 16-8 13-3h17l16 3 12 5 12 7 9 8 7 10 5 13 2 9 1 14v121l-4 2h-60l-1-1-1-109-3-12-5-8-7-6-10-3h-14l-10 4-7 8-4 10-1 113-1 3-20 1h-43l-1-1-1-113-5-13-5-6-7-4-8-2h-14l-9 4-6 5-5 10-1 5-1 114-2 1h-62l-1-14v-171l1-1h63l1 7v10l7-4 11-8 16-8z" fill="#FEFEFE"/>
<path transform="translate(1168,691)" d="m0 0 16 2 12 6 9 9 7 11 3 10v13l-4 12-7 9-9 9 1 3 8 7 6 8 5 13v15l-4 12-9 11-7 7 1 3 8 7 6 8 5 13v15l-4 12-9 10-7 8v2l8 7 6 7 5 12 1 3v15l-4 12-9 10-7 8 6 7 8 9 5 12 1 3v15l-4 12-9 10-6 6 1 5 5 5 8 9 4 10 1 4v14l-4 12-4 6-11 11 1 5 3 2v2l3 1 7 9 5 13v15l-4 12-6 8-11 11-10 4-9 2-13-1-9-2-10-7-5-5-6-7-5-11-1-4v-15l4-12 7-9 7-6 1-3-9-10-7-11-3-10v-15l3-10 6-9 10-10-4-6-7-7-6-11-2-7v-15l3-10 7-10 10-10-11-12-6-9-4-15 1-10 3-10 7-10 10-10-12-13-5-8-3-10v-15l4-11 4-6 7-8 4-3h2l-8-10-7-8-4-8-2-7-1-9 3-13 5-9 8-9 4-3h2l-8-10-7-7-4-7-2-8v-15l4-11 8-11 10-9 8-4z" fill="#FEFEFE"/>
<path transform="translate(1271,767)" d="m0 0h19l9 3 10 9 10 10 5 12v19l-3 9-7 10-7 8-3 3 8 7v2h2l7 9 3 10v19l-3 8-6 8-8 9-3 2v2l8 7 7 8 4 8 1 4v21l-5 10-8 10h-2l-2 4-3 2v2l8 7 7 8 4 8 1 4v20l-3 8-8 10-8 8 1 4 5 4 9 11 4 10v19l-4 11-12 14-3 1-1 5 4 2 9 9 6 11 1 4v19l-4 11-11 12-8 7-7 3-10 2h-7l-12-2-10-6-9-9-6-8-4-12v-16l4-10 7-9 7-7h2l-1-5-11-11-5-8-3-10v-16l4-11 9-10 5-5h2l-3-7-9-9-5-7-3-9v-17l5-13 5-6 10-10-2-5-4-2v-2h-2l-9-12-3-9v-17l4-11 7-8 9-9-2-4-10-10-5-8-3-9v-16l4-12 9-10 7-7-6-7-8-10-5-10-1-4v-17l5-13 18-18 7-3z" fill="#FEFEFE"/>
<path transform="translate(509,1020)" d="m0 0h21l16 3 13 5 9 5 11 8 1-14 1-2 63 1 1 1v184l-2 1h-57l-5-1-1-18-12 10-14 8-11 4-12 2h-24l-12-2-16-6-13-8-10-9-10-11-8-13-6-14-4-17-1-10v-16l2-16 5-16 8-16 9-12 12-12 14-9 11-5 14-4zm25 55-12 3-8 4-9 8-6 10-3 11v17l4 12 6 9 8 7 8 4 8 2h19l11-4 8-6 8-9 4-8 2-9v-14l-3-11-6-10-8-8-12-6-9-2z" fill="#FEFEFE"/>
<path transform="translate(1389,842)" d="m0 0 17 2 8 4 15 15 6 13 1 5v11l-4 13-8 10-9 9 6 7 8 8 5 10 2 9v10l-4 13-8 10-8 8 1 4 12 12 6 12 1 7v10l-4 13-5 7h-2l-2 4-7 6 1 5 13 13 4 8 2 9v11l-4 12-4 6-12 12v5l4 2 7 7 5 7 4 13v12l-5 14-9 10-8 8-5 3-14 3h-7l-14-3-11-8-7-7-6-10-3-9v-14l3-10 6-10 7-7 3-2-1-4-7-7-7-11-3-6-1-6v-12l2-9 5-9 9-10 3-2-1-4-8-8-7-11-2-4-1-6v-13l2-8 5-9 9-10 4-2-3-5-10-12-6-11-1-6v-13l2-8 5-9 8-9 4-3h2l-14-16-6-12-1-6v-13l2-9 7-10 13-13 8-4z" fill="#FEFEFE"/>
<path transform="translate(1489,919)" d="m0 0h19l12 4 10 9 7 8 4 9 2 6v15l-4 12-9 10-7 8 6 7 7 7 4 8 3 9 1 9-3 12-4 9-5 6-8 7 1 5 3 2v2l3 1 8 10 4 12v15l-4 12-4 6-10 10-1 4 8 7 7 9 4 11 1 11-3 12-4 8-11 12-9 6-10 3h-18l-10-3-10-9-7-7-6-10-2-9v-11l3-11 5-8 9-9 1-5-4-4v-2h-2l-7-10-4-10-1-5v-12l3-10 5-9 11-11-2-4-8-8-6-10-3-12v-9l3-12 7-11 10-10-14-16-4-8-2-8v-13l4-12 6-9 9-9 11-6z" fill="#FEFEFE"/>
<path transform="translate(1317,579)" d="m0 0 7 4 17 12 6 4-1 5-8 11-26 36-21 28-4 6 5-2 19-12 23-14 28-17 21-13 5 1 14 10 10 7-1 5-13 19-13 18-11 16-13 18-9 12-1 3 16-12 16-11 27-18 16-10 20-13 6 1 18 13 10 7-4 4-21 13-15 9-26 16-56 34-16 10-5-1-16-11-17-12-3-4 12-16 8-12 13-18 12-17 5-7-11 7-16 10-19 12-28 17-7 4-18-13-16-11-1-4 7-11 8-12 17-26 27-41 9-14 12-18z" fill="#FEFEFE"/>
<path transform="translate(1598,994)" d="m0 0 13 1 9 3 8 6 9 9 6 11 2 11v9l-2 9-6 10-12 13-1 2 4 2 5 5 7 8 4 9 1 6v9l-2 11-4 8-11 13-3 4 10 9 6 9 3 7 1 6v10l-2 10-3 6-11 13-10 7-10 3-5 1h-7l-14-3-6-4-15-15-4-9-2-8v-10l3-12 6-9 9-9h2l-1-5-4-4v-2l-3-1-8-10-4-14v-10l3-12 4-7 13-13-3-5-9-9-5-8-3-10v-11l3-12 4-7 16-16 7-3z" fill="#FEFEFE"/>
<path transform="translate(1697,1066)" d="m0 0 14 1 9 3 9 7 8 8 6 11 2 8v13l-2 8-5 9-9 10-5 4-2 2 12 11 8 11 3 10v14l-2 9-7 11-9 9-10 6-13 3h-7l-14-3-8-6-12-12-4-8-3-11v-9l3-12 4-6 9-10 7-6-2-4-2-1v-2l-4-2-9-10-4-8-2-9v-8l3-12 4-8 16-16 7-3z" fill="#FEFEFE"/>
<path transform="translate(1760,878)" d="m0 0 4 1 9 7 19 13-1 4-10 9-7 7-14 11-7 5 14 1 12 5 10 9 4 6 2 6v9l-5 12-7 11-7 7-6 7-8 7-16 15-10 9-7 6-4 4-7-4-14-10-11-8v-3l8-7 3-3h2v-2l8-7 6-6h2v-2l8-7 8-8 6-5 7-9-1-7-4-3h-7l-9 4-9 6-13 12-3 1v2l-8 7-17 16-6 6-6-2-12-9-14-10v-4l8-8 8-7 8-8 8-7 16-15 12-11 13-12 7-7 8-7 16-15 12-11z" fill="#FEFEFE"/>
<path transform="translate(1464,735)" d="m0 0h17l10 4 8 6 6 9 2 6 1 10 7-4 5-3 8 4 12 9 6 5-18 18-8 7-7 7h-2v2l-8 7-16 15-26 24-3 2-10-8-15-10 2-5 3-3 1-3-6 2h-12l-9-4-8-6-4-5-4-8v-17l6-14 8-11 9-10 11-10 14-9 15-6zm7 37-11 6-11 9-8 10-3 6v6l4 5 2 1 10-1 11-6 13-12 7-10 1-3v-7l-3-4z" fill="#FEFEFE"/>
<path transform="translate(1594,789)" d="m0 0h6l15 11 3 2-1 5-8 7-5 4-1 3 4 2 17 12 1 4-10 9-8 7-4 3-14-10-9-6-4 2-13 12-15 14-7 8 1 5 6 4 12 5v3l-11 15-3 5-7 1-13-5-11-6-10-8-6-7-3-6v-11l6-12 9-10 21-21 8-7 5-4-1-3-9-6 1-4 7-7 6-4 10 2 8 2h7l19-9z" fill="#FEFEFE"/>
<path transform="translate(1638,862)" d="m0 0h18l12 3 14 8 11 9 11 13 2 3-1 5-18 11-7 4-8-10-6-7-6-3-6-1-9 2-12 7-9 9-5 9-2 5 1 6 5 5 12 6 15 3-4 8-12 17-4 2-17-5-12-6-11-8-7-8-5-10-2-7v-11l4-12 7-12 8-10 11-11 13-8 10-4z" fill="#FEFEFE"/>
<path transform="translate(1796,1144)" d="m0 0 15 1 10 4 9 7 8 9 5 11 1 4v16l-3 10-6 9-12 12-9 4-5 1h-19l-11-4-8-7-9-9-4-8-2-7v-17l4-12 7-9 8-8 10-5z" fill="#FEFEFE"/>
</svg>
